<svg width="24" height="24" class="domain-icon property-feature__icon css-gsqvet" xmlns="http://www.w3.org/2000/svg" viewBox="0 0 24 24" aria-hidden="true"><path d="M7 6.55752V8.69783C7.44647 8.82039 8.1239 8.9606 8.96149 8.96475C9.83765 8.96914 10.544 8.82303 11 8.69783V6.55752C10.5059 6.44027 9.79156 6.3179 8.9245 6.32534C8.13001 6.33218 7.47101 6.4457 7 6.55752Z" fill="currentColor"></path><path d="M13 8.69783V6.55752C13.471 6.4457 14.13 6.33218 14.9245 6.32534C15.7916 6.3179 16.5059 6.44027 17 6.55752V8.69783C16.544 8.82303 15.8376 8.96914 14.9615 8.96475C14.1239 8.9606 13.4465 8.82039 13 8.69783Z" fill="currentColor"></path><path fill-rule="evenodd" clip-rule="evenodd" d="M21 10.1843V2H3V10.1843C1.8385 10.5984 1 11.6981 1 13V19H3.52264L2.32263 22H4.47735L5.67736 19H18.3226L19.5226 22H21.6773L20.4773 19H23V13C23 11.6981 22.1615 10.5984 21 10.1843ZM5 4H19V10H5V4ZM21 17H3V13C3 12.4487 3.44873 12 4 12H20C20.5513 12 21 12.4487 21 13V17Z" fill="currentColor"></path></svg>