<svg class="domain-icon css-19rzj4d" xmlns="http://www.w3.org/2000/svg" viewBox="0 0 24 24" aria-hidden="true"><path d="M11 12H9V6.3877L6.5 4.08301L4 6.3877V12H2V5.51074L5.28125 2.48633C5.98633 1.83496 7.01367 1.83496 7.71875 2.48633L11 5.51074V12ZM19.1504 17.7593C19.5449 17.4214 23 14.377 23 11.5C23 9.01855 20.9814 7 18.5 7C16.0185 7 14 9.01855 14 11.5C14 14.377 17.4551 17.4214 17.8496 17.7593L18.5 18.3169L19.1504 17.7593ZM21 11.5C21 12.7353 19.6533 14.4815 18.5 15.6343C17.3467 14.4815 16 12.7353 16 11.5C16 10.1216 17.1211 9 18.5 9C19.8789 9 21 10.1216 21 11.5ZM21 19H12.3272C11.916 19 11.7539 18.73 11.7139 18.647C11.6543 18.522 11.6172 18.3296 11.7812 18.125C12.3877 17.3662 12.5059 16.3555 12.0889 15.4868C11.6475 14.5698 10.7217 14 9.67285 14H2V16H9.67285C10.084 16 10.2461 16.27 10.2861 16.353C10.3457 16.478 10.3828 16.6704 10.2188 16.875C9.6123 17.6338 9.49414 18.6445 9.91113 19.5132C10.3525 20.4302 11.2783 21 12.3272 21H21V19Z" fill="currentColor"></path></svg>