<svg data-testid="listing-details__shortlist-button-icon" class="domain-icon css-1558raj" xmlns="http://www.w3.org/2000/svg" viewBox="0 0 24 24" aria-hidden="true"><path d="M19.1768 22.8281L12.4653 19.2998C12.1743 19.1465 11.8257 19.1465 11.5347 19.2998L4.82324 22.8281L6.10498 15.355C6.16113 15.0303 6.05322 14.6992 5.81738 14.4692L0.387207 9.17725L7.8916 8.08692C8.2168 8.03956 8.49853 7.83497 8.64453 7.53956L12 0.740234L15.356 7.54003C15.5015 7.83495 15.7832 8.03954 16.1089 8.08691L23.6128 9.17725L18.1821 14.4697C17.9468 14.6992 17.8389 15.0303 17.895 15.355L19.1768 22.8281L19.1768 22.8281ZM12 17.1851C12.4795 17.1851 12.959 17.2998 13.396 17.5293L16.5205 19.1719L15.9233 15.6929C15.7568 14.7197 16.0791 13.7271 16.7861 13.0376L19.314 10.5737L15.8213 10.0664C14.8437 9.92432 13.9995 9.31055 13.5625 8.4253L12 5.25977L10.438 8.42481C10.0005 9.31055 9.15624 9.92432 8.17919 10.0664L4.68603 10.5737L7.21337 13.0371C7.92089 13.7271 8.24316 14.7197 8.07665 15.6929L7.47948 19.1719L10.604 17.5293C11.041 17.2998 11.5205 17.1851 12 17.1851H12Z" fill="currentColor"></path></svg>